<svg width="40" height="40" viewBox="0 0 40 40" fill="none" xmlns="http://www.w3.org/2000/svg">
<path d="M20 40C31.0834 40 40 31.0834 40 20C40 8.9166 31.0834 0 20 0C8.9166 0 0 8.9166 0 20C0 31.0834 8.9166 40 20 40Z" fill="#2775CA"/>
<path d="M25.5001 23.167C25.5001 20.2504 23.7501 19.2504 20.2501 18.8338C17.7501 18.5004 17.2501 17.8338 17.2501 16.667C17.2501 15.5002 18.0835 14.7504 19.7501 14.7504C21.2501 14.7504 22.0835 15.2504 22.5001 16.5004C22.5835 16.7504 22.8335 16.917 23.0835 16.917H24.4167C24.7501 16.917 25.0001 16.667 25.0001 16.3338V16.2504C24.6667 14.417 23.1667 13.0004 21.2501 12.8338V10.8338C21.2501 10.5004 21.0001 10.2504 20.5835 10.167H19.3335C19.0001 10.167 18.7501 10.417 18.6667 10.8338V12.7504C16.1667 13.0838 14.5835 14.7504 14.5835 16.8338C14.5835 19.5838 16.2501 20.667 19.7501 21.0838C22.0835 21.5004 22.8335 22.0004 22.8335 23.3338C22.8335 24.6672 21.6667 25.5838 20.0835 25.5838C17.9167 25.5838 17.1667 24.667 16.9167 23.417C16.8335 23.0838 16.5835 22.917 16.3335 22.917H14.9167C14.5835 22.917 14.3335 23.167 14.3335 23.5004V23.5838C14.6667 25.667 16.0001 27.167 18.7501 27.5838V29.5838C18.7501 29.917 19.0001 30.167 19.4167 30.2504H20.6667C21.0001 30.2504 21.2501 30.0004 21.3335 29.5838V27.5838C23.8335 27.167 25.5001 25.417 25.5001 23.167Z" fill="white"/>
<path d="M15.7502 31.9162C9.25016 29.583 5.91676 22.333 8.33356 15.9162C9.58356 12.4162 12.3336 9.74961 15.7502 8.49961C16.0836 8.33301 16.2502 8.08301 16.2502 7.66621V6.49961C16.2502 6.16621 16.0836 5.91621 15.7502 5.83301C15.6668 5.83301 15.5002 5.83301 15.4168 5.91621C7.50016 8.41621 3.16676 16.833 5.66676 24.7496C7.16676 29.4162 10.7502 32.9996 15.4168 34.4996C15.7502 34.6662 16.0836 34.4996 16.1668 34.1662C16.2502 34.083 16.2502 33.9996 16.2502 33.833V32.6662C16.2502 32.4162 16.0002 32.083 15.7502 31.9162ZM24.5836 5.91621C24.2502 5.74961 23.9168 5.91621 23.8336 6.24961C23.7502 6.33301 23.7502 6.41621 23.7502 6.58301V7.74961C23.7502 8.08301 24.0002 8.41621 24.2502 8.58301C30.7502 10.9162 34.0836 18.1662 31.6668 24.583C30.4168 28.083 27.6668 30.7496 24.2502 31.9996C23.9168 32.1662 23.7502 32.4162 23.7502 32.833V33.9996C23.7502 34.333 23.9168 34.583 24.2502 34.6662C24.3336 34.6662 24.5002 34.6662 24.5836 34.583C32.5002 32.083 36.8336 23.6662 34.3336 15.7496C32.8336 10.9996 29.1668 7.41621 24.5836 5.91621Z" fill="white"/>
</svg>
