<svg width="40" height="40" viewBox="0 0 40 40" fill="none" xmlns="http://www.w3.org/2000/svg">
<path d="M20 40C31.0457 40 40 31.0457 40 20C40 8.9543 31.0457 0 20 0C8.9543 0 0 8.9543 0 20C0 31.0457 8.9543 40 20 40Z" fill="#26A17B"/>
<path fill-rule="evenodd" clip-rule="evenodd" d="M22.4025 21.7284V21.7259C22.265 21.7359 21.5562 21.7784 19.975 21.7784C18.7125 21.7784 17.8237 21.7409 17.5112 21.7259V21.7297C12.6512 21.5159 9.02375 20.6697 9.02375 19.6572C9.02375 18.6459 12.6512 17.7997 17.5112 17.5822V20.8872C17.8287 20.9097 18.7387 20.9634 19.9962 20.9634C21.505 20.9634 22.2613 20.9009 22.4025 20.8884V17.5847C27.2525 17.8009 30.8713 18.6472 30.8713 19.6572C30.8713 20.6697 27.2525 21.5134 22.4025 21.7284ZM22.4025 17.2409V14.2834H29.17V9.77344H10.7438V14.2834H17.5112V17.2397C12.0112 17.4922 7.875 18.5822 7.875 19.8872C7.875 21.1922 12.0112 22.2809 17.5112 22.5347V32.0122H22.4025V22.5322C27.8938 22.2797 32.02 21.1909 32.02 19.8872C32.02 18.5834 27.8938 17.4947 22.4025 17.2409Z" fill="white"/>
</svg>
