<svg width="77" height="12" viewBox="0 0 77 12" fill="none" xmlns="http://www.w3.org/2000/svg">
    <path d="M6.94334 9.012H2.86934L2.16934 11H0.503344L3.98934 1.256H5.83734L9.32334 11H7.64334L6.94334 9.012ZM6.49534 7.71L4.91334 3.188L3.31734 7.71H6.49534ZM10.3071 7.136C10.3071 6.34267 10.4657 5.64733 10.7831 5.05C11.1097 4.44333 11.5577 3.97667 12.1271 3.65C12.6964 3.32333 13.3497 3.16 14.0871 3.16C15.0204 3.16 15.7904 3.384 16.3971 3.832C17.0131 4.27067 17.4284 4.90067 17.6431 5.722H15.9211C15.7811 5.33933 15.5571 5.04067 15.2491 4.826C14.9411 4.61133 14.5537 4.504 14.0871 4.504C13.4337 4.504 12.9111 4.73733 12.5191 5.204C12.1364 5.66133 11.9451 6.30533 11.9451 7.136C11.9451 7.96667 12.1364 8.61533 12.5191 9.082C12.9111 9.54867 13.4337 9.782 14.0871 9.782C15.0111 9.782 15.6224 9.376 15.9211 8.564H17.6431C17.4191 9.348 16.9991 9.97333 16.3831 10.44C15.7671 10.8973 15.0017 11.126 14.0871 11.126C13.3497 11.126 12.6964 10.9627 12.1271 10.636C11.5577 10.3 11.1097 9.83333 10.7831 9.236C10.4657 8.62933 10.3071 7.92933 10.3071 7.136ZM21.0956 4.588V8.858C21.0956 9.14733 21.1609 9.35733 21.2916 9.488C21.4316 9.60933 21.6649 9.67 21.9916 9.67H22.9716V11H21.7116C20.9929 11 20.4423 10.832 20.0596 10.496C19.6769 10.16 19.4856 9.614 19.4856 8.858V4.588H18.5756V3.286H19.4856V1.368H21.0956V3.286H22.9716V4.588H21.0956ZM25.2546 2.264C24.9652 2.264 24.7226 2.166 24.5266 1.97C24.3306 1.774 24.2326 1.53133 24.2326 1.242C24.2326 0.952666 24.3306 0.71 24.5266 0.514C24.7226 0.318 24.9652 0.219999 25.2546 0.219999C25.5346 0.219999 25.7726 0.318 25.9686 0.514C26.1646 0.71 26.2626 0.952666 26.2626 1.242C26.2626 1.53133 26.1646 1.774 25.9686 1.97C25.7726 2.166 25.5346 2.264 25.2546 2.264ZM26.0386 3.286V11H24.4426V3.286H26.0386ZM31.116 9.572L33.3 3.286H34.994L32.054 11H30.15L27.224 3.286H28.932L31.116 9.572ZM43.2704 6.954C43.2704 7.24333 43.2517 7.50467 43.2144 7.738H37.3204C37.3671 8.354 37.5957 8.84867 38.0064 9.222C38.4171 9.59533 38.9211 9.782 39.5184 9.782C40.3771 9.782 40.9837 9.42267 41.3384 8.704H43.0604C42.8271 9.41333 42.4024 9.99667 41.7864 10.454C41.1797 10.902 40.4237 11.126 39.5184 11.126C38.7811 11.126 38.1184 10.9627 37.5304 10.636C36.9517 10.3 36.4944 9.83333 36.1584 9.236C35.8317 8.62933 35.6684 7.92933 35.6684 7.136C35.6684 6.34267 35.8271 5.64733 36.1444 5.05C36.4711 4.44333 36.9237 3.97667 37.5024 3.65C38.0904 3.32333 38.7624 3.16 39.5184 3.16C40.2464 3.16 40.8951 3.31867 41.4644 3.636C42.0337 3.95333 42.4771 4.40133 42.7944 4.98C43.1117 5.54933 43.2704 6.20733 43.2704 6.954ZM41.6044 6.45C41.5951 5.862 41.3851 5.39067 40.9744 5.036C40.5637 4.68133 40.0551 4.504 39.4484 4.504C38.8977 4.504 38.4264 4.68133 38.0344 5.036C37.6424 5.38133 37.4091 5.85267 37.3344 6.45H41.6044ZM52.3697 3.16C52.9764 3.16 53.5177 3.286 53.9937 3.538C54.4791 3.79 54.8571 4.16333 55.1277 4.658C55.3984 5.15267 55.5337 5.75 55.5337 6.45V11H53.9517V6.688C53.9517 5.99733 53.7791 5.47 53.4337 5.106C53.0884 4.73267 52.6171 4.546 52.0197 4.546C51.4224 4.546 50.9464 4.73267 50.5917 5.106C50.2464 5.47 50.0737 5.99733 50.0737 6.688V11H48.4777V3.286H50.0737V4.168C50.3351 3.85067 50.6664 3.60333 51.0677 3.426C51.4784 3.24867 51.9124 3.16 52.3697 3.16ZM60.9155 11.126C60.1875 11.126 59.5295 10.9627 58.9415 10.636C58.3535 10.3 57.8915 9.83333 57.5555 9.236C57.2195 8.62933 57.0515 7.92933 57.0515 7.136C57.0515 6.352 57.2242 5.65667 57.5695 5.05C57.9149 4.44333 58.3862 3.97667 58.9835 3.65C59.5809 3.32333 60.2482 3.16 60.9855 3.16C61.7229 3.16 62.3902 3.32333 62.9875 3.65C63.5849 3.97667 64.0562 4.44333 64.4015 5.05C64.7469 5.65667 64.9195 6.352 64.9195 7.136C64.9195 7.92 64.7422 8.61533 64.3875 9.222C64.0329 9.82867 63.5475 10.3 62.9315 10.636C62.3249 10.9627 61.6529 11.126 60.9155 11.126ZM60.9155 9.74C61.3262 9.74 61.7089 9.642 62.0635 9.446C62.4275 9.25 62.7215 8.956 62.9455 8.564C63.1695 8.172 63.2815 7.696 63.2815 7.136C63.2815 6.576 63.1742 6.10467 62.9595 5.722C62.7449 5.33 62.4602 5.036 62.1055 4.84C61.7509 4.644 61.3682 4.546 60.9575 4.546C60.5469 4.546 60.1642 4.644 59.8095 4.84C59.4642 5.036 59.1889 5.33 58.9835 5.722C58.7782 6.10467 58.6755 6.576 58.6755 7.136C58.6755 7.96667 58.8855 8.61067 59.3055 9.068C59.7349 9.516 60.2715 9.74 60.9155 9.74ZM76.8573 3.286L74.4633 11H72.7833L71.2293 5.302L69.6753 11H67.9953L65.5873 3.286H67.2113L68.8213 9.488L70.4593 3.286H72.1253L73.6933 9.46L75.2893 3.286H76.8573Z" fill="url(#paint0_linear_2142_4330)"/>
    <defs>
        <linearGradient id="paint0_linear_2142_4330" x1="1.7928e-07" y1="6.49998" x2="77" y2="6.49998" gradientUnits="userSpaceOnUse">
            <stop stopColor="#59FFEB"/>
            <stop offset="1" stopColor="#14C7FF"/>
        </linearGradient>
    </defs>
</svg>