<svg width="102" height="18" viewBox="0 0 102 10" fill="none" xmlns="http://www.w3.org/2000/svg">
    <path
        d="M7.08 0.659999L4.32 5.976V9H2.952V5.976L0.18 0.659999H1.704L3.636 4.752L5.568 0.659999H7.08ZM11.0336 9.108C10.4096 9.108 9.84563 8.968 9.34163 8.688C8.83763 8.4 8.44163 8 8.15363 7.488C7.86563 6.968 7.72163 6.368 7.72163 5.688C7.72163 5.016 7.86963 4.42 8.16563 3.9C8.46163 3.38 8.86563 2.98 9.37763 2.7C9.88963 2.42 10.4616 2.28 11.0936 2.28C11.7256 2.28 12.2976 2.42 12.8096 2.7C13.3216 2.98 13.7256 3.38 14.0216 3.9C14.3176 4.42 14.4656 5.016 14.4656 5.688C14.4656 6.36 14.3136 6.956 14.0096 7.476C13.7056 7.996 13.2896 8.4 12.7616 8.688C12.2416 8.968 11.6656 9.108 11.0336 9.108ZM11.0336 7.92C11.3856 7.92 11.7136 7.836 12.0176 7.668C12.3296 7.5 12.5816 7.248 12.7736 6.912C12.9656 6.576 13.0616 6.168 13.0616 5.688C13.0616 5.208 12.9696 4.804 12.7856 4.476C12.6016 4.14 12.3576 3.888 12.0536 3.72C11.7496 3.552 11.4216 3.468 11.0696 3.468C10.7176 3.468 10.3896 3.552 10.0856 3.72C9.78963 3.888 9.55363 4.14 9.37763 4.476C9.20163 4.804 9.11363 5.208 9.11363 5.688C9.11363 6.4 9.29363 6.952 9.65363 7.344C10.0216 7.728 10.4816 7.92 11.0336 7.92ZM21.806 2.388V9H20.438V8.22C20.222 8.492 19.938 8.708 19.586 8.868C19.242 9.02 18.874 9.096 18.482 9.096C17.962 9.096 17.494 8.988 17.078 8.772C16.67 8.556 16.346 8.236 16.106 7.812C15.874 7.388 15.758 6.876 15.758 6.276V2.388H17.114V6.072C17.114 6.664 17.262 7.12 17.558 7.44C17.854 7.752 18.258 7.908 18.77 7.908C19.282 7.908 19.686 7.752 19.982 7.44C20.286 7.12 20.438 6.664 20.438 6.072V2.388H21.806ZM30.1481 2.28C30.6521 2.28 31.1001 2.388 31.4921 2.604C31.8921 2.82 32.2041 3.14 32.4281 3.564C32.6601 3.988 32.7761 4.5 32.7761 5.1V9H31.4201V5.304C31.4201 4.712 31.2721 4.26 30.9761 3.948C30.6801 3.628 30.2761 3.468 29.7641 3.468C29.2521 3.468 28.8441 3.628 28.5401 3.948C28.2441 4.26 28.0961 4.712 28.0961 5.304V9H26.7281V0.12H28.0961V3.156C28.3281 2.876 28.6201 2.66 28.9721 2.508C29.3321 2.356 29.7241 2.28 30.1481 2.28ZM34.0651 5.664C34.0651 5 34.2011 4.412 34.4731 3.9C34.7531 3.388 35.1291 2.992 35.6011 2.712C36.0811 2.424 36.6091 2.28 37.1851 2.28C37.7051 2.28 38.1571 2.384 38.5411 2.592C38.9331 2.792 39.2451 3.044 39.4771 3.348V2.388H40.8571V9H39.4771V8.016C39.2451 8.328 38.9291 8.588 38.5291 8.796C38.1291 9.004 37.6731 9.108 37.1611 9.108C36.5931 9.108 36.0731 8.964 35.6011 8.676C35.1291 8.38 34.7531 7.972 34.4731 7.452C34.2011 6.924 34.0651 6.328 34.0651 5.664ZM39.4771 5.688C39.4771 5.232 39.3811 4.836 39.1891 4.5C39.0051 4.164 38.7611 3.908 38.4571 3.732C38.1531 3.556 37.8251 3.468 37.4731 3.468C37.1211 3.468 36.7931 3.556 36.4891 3.732C36.1851 3.9 35.9371 4.152 35.7451 4.488C35.5611 4.816 35.4691 5.208 35.4691 5.664C35.4691 6.12 35.5611 6.52 35.7451 6.864C35.9371 7.208 36.1851 7.472 36.4891 7.656C36.8011 7.832 37.1291 7.92 37.4731 7.92C37.8251 7.92 38.1531 7.832 38.4571 7.656C38.7611 7.48 39.0051 7.224 39.1891 6.888C39.3811 6.544 39.4771 6.144 39.4771 5.688ZM45.2099 7.776L47.0819 2.388H48.5339L46.0139 9H44.3819L41.8739 2.388H43.3379L45.2099 7.776ZM55.628 5.532C55.628 5.78 55.612 6.004 55.58 6.204H50.528C50.568 6.732 50.764 7.156 51.116 7.476C51.468 7.796 51.9 7.956 52.412 7.956C53.148 7.956 53.668 7.648 53.972 7.032H55.448C55.248 7.64 54.884 8.14 54.356 8.532C53.836 8.916 53.188 9.108 52.412 9.108C51.78 9.108 51.212 8.968 50.708 8.688C50.212 8.4 49.82 8 49.532 7.488C49.252 6.968 49.112 6.368 49.112 5.688C49.112 5.008 49.248 4.412 49.52 3.9C49.8 3.38 50.188 2.98 50.684 2.7C51.188 2.42 51.764 2.28 52.412 2.28C53.036 2.28 53.592 2.416 54.08 2.688C54.568 2.96 54.948 3.344 55.22 3.84C55.492 4.328 55.628 4.892 55.628 5.532ZM54.2 5.1C54.192 4.596 54.012 4.192 53.66 3.888C53.308 3.584 52.872 3.432 52.352 3.432C51.88 3.432 51.476 3.584 51.14 3.888C50.804 4.184 50.604 4.588 50.54 5.1H54.2ZM59.6354 5.664C59.6354 5 59.7714 4.412 60.0434 3.9C60.3234 3.388 60.6994 2.992 61.1714 2.712C61.6514 2.424 62.1794 2.28 62.7554 2.28C63.2754 2.28 63.7274 2.384 64.1114 2.592C64.5034 2.792 64.8154 3.044 65.0474 3.348V2.388H66.4274V9H65.0474V8.016C64.8154 8.328 64.4994 8.588 64.0994 8.796C63.6994 9.004 63.2434 9.108 62.7314 9.108C62.1634 9.108 61.6434 8.964 61.1714 8.676C60.6994 8.38 60.3234 7.972 60.0434 7.452C59.7714 6.924 59.6354 6.328 59.6354 5.664ZM65.0474 5.688C65.0474 5.232 64.9514 4.836 64.7594 4.5C64.5754 4.164 64.3314 3.908 64.0274 3.732C63.7234 3.556 63.3954 3.468 63.0434 3.468C62.6914 3.468 62.3634 3.556 62.0594 3.732C61.7554 3.9 61.5074 4.152 61.3154 4.488C61.1314 4.816 61.0394 5.208 61.0394 5.664C61.0394 6.12 61.1314 6.52 61.3154 6.864C61.5074 7.208 61.7554 7.472 62.0594 7.656C62.3714 7.832 62.6994 7.92 63.0434 7.92C63.3954 7.92 63.7234 7.832 64.0274 7.656C64.3314 7.48 64.5754 7.224 64.7594 6.888C64.9514 6.544 65.0474 6.144 65.0474 5.688ZM67.7682 5.688C67.7682 5.008 67.9042 4.412 68.1762 3.9C68.4562 3.38 68.8402 2.98 69.3282 2.7C69.8162 2.42 70.3762 2.28 71.0082 2.28C71.8082 2.28 72.4682 2.472 72.9882 2.856C73.5162 3.232 73.8722 3.772 74.0562 4.476H72.5802C72.4602 4.148 72.2682 3.892 72.0042 3.708C71.7402 3.524 71.4082 3.432 71.0082 3.432C70.4482 3.432 70.0002 3.632 69.6642 4.032C69.3362 4.424 69.1722 4.976 69.1722 5.688C69.1722 6.4 69.3362 6.956 69.6642 7.356C70.0002 7.756 70.4482 7.956 71.0082 7.956C71.8002 7.956 72.3242 7.608 72.5802 6.912H74.0562C73.8642 7.584 73.5042 8.12 72.9762 8.52C72.4482 8.912 71.7922 9.108 71.0082 9.108C70.3762 9.108 69.8162 8.968 69.3282 8.688C68.8402 8.4 68.4562 8 68.1762 7.488C67.9042 6.968 67.7682 6.368 67.7682 5.688ZM74.9635 5.688C74.9635 5.008 75.0995 4.412 75.3715 3.9C75.6515 3.38 76.0355 2.98 76.5235 2.7C77.0115 2.42 77.5715 2.28 78.2035 2.28C79.0035 2.28 79.6635 2.472 80.1835 2.856C80.7115 3.232 81.0675 3.772 81.2515 4.476H79.7755C79.6555 4.148 79.4635 3.892 79.1995 3.708C78.9355 3.524 78.6035 3.432 78.2035 3.432C77.6435 3.432 77.1955 3.632 76.8595 4.032C76.5315 4.424 76.3675 4.976 76.3675 5.688C76.3675 6.4 76.5315 6.956 76.8595 7.356C77.1955 7.756 77.6435 7.956 78.2035 7.956C78.9955 7.956 79.5195 7.608 79.7755 6.912H81.2515C81.0595 7.584 80.6995 8.12 80.1715 8.52C79.6435 8.912 78.9875 9.108 78.2035 9.108C77.5715 9.108 77.0115 8.968 76.5235 8.688C76.0355 8.4 75.6515 8 75.3715 7.488C75.0995 6.968 74.9635 6.368 74.9635 5.688ZM88.6748 5.532C88.6748 5.78 88.6588 6.004 88.6268 6.204H83.5748C83.6148 6.732 83.8108 7.156 84.1628 7.476C84.5148 7.796 84.9468 7.956 85.4588 7.956C86.1948 7.956 86.7148 7.648 87.0188 7.032H88.4948C88.2948 7.64 87.9308 8.14 87.4028 8.532C86.8828 8.916 86.2348 9.108 85.4588 9.108C84.8268 9.108 84.2588 8.968 83.7548 8.688C83.2588 8.4 82.8668 8 82.5788 7.488C82.2988 6.968 82.1588 6.368 82.1588 5.688C82.1588 5.008 82.2948 4.412 82.5668 3.9C82.8468 3.38 83.2348 2.98 83.7308 2.7C84.2348 2.42 84.8108 2.28 85.4588 2.28C86.0828 2.28 86.6388 2.416 87.1268 2.688C87.6148 2.96 87.9948 3.344 88.2668 3.84C88.5388 4.328 88.6748 4.892 88.6748 5.532ZM87.2468 5.1C87.2388 4.596 87.0588 4.192 86.7068 3.888C86.3548 3.584 85.9188 3.432 85.3988 3.432C84.9268 3.432 84.5228 3.584 84.1868 3.888C83.8508 4.184 83.6508 4.588 83.5868 5.1H87.2468ZM92.4211 9.108C91.9011 9.108 91.4331 9.016 91.0171 8.832C90.6091 8.64 90.2851 8.384 90.0451 8.064C89.8051 7.736 89.6771 7.372 89.6611 6.972H91.0771C91.1011 7.252 91.2331 7.488 91.4731 7.68C91.7211 7.864 92.0291 7.956 92.3971 7.956C92.7811 7.956 93.0771 7.884 93.2851 7.74C93.5011 7.588 93.6091 7.396 93.6091 7.164C93.6091 6.916 93.4891 6.732 93.2491 6.612C93.0171 6.492 92.6451 6.36 92.1331 6.216C91.6371 6.08 91.2331 5.948 90.9211 5.82C90.6091 5.692 90.3371 5.496 90.1051 5.232C89.8811 4.968 89.7691 4.62 89.7691 4.188C89.7691 3.836 89.8731 3.516 90.0811 3.228C90.2891 2.932 90.5851 2.7 90.9691 2.532C91.3611 2.364 91.8091 2.28 92.3131 2.28C93.0651 2.28 93.6691 2.472 94.1251 2.856C94.5891 3.232 94.8371 3.748 94.8691 4.404H93.5011C93.4771 4.108 93.3571 3.872 93.1411 3.696C92.9251 3.52 92.6331 3.432 92.2651 3.432C91.9051 3.432 91.6291 3.5 91.4371 3.636C91.2451 3.772 91.1491 3.952 91.1491 4.176C91.1491 4.352 91.2131 4.5 91.3411 4.62C91.4691 4.74 91.6251 4.836 91.8091 4.908C91.9931 4.972 92.2651 5.056 92.6251 5.16C93.1051 5.288 93.4971 5.42 93.8011 5.556C94.1131 5.684 94.3811 5.876 94.6051 6.132C94.8291 6.388 94.9451 6.728 94.9531 7.152C94.9531 7.528 94.8491 7.864 94.6411 8.16C94.4331 8.456 94.1371 8.688 93.7531 8.856C93.3771 9.024 92.9331 9.108 92.4211 9.108ZM98.8313 9.108C98.3113 9.108 97.8433 9.016 97.4273 8.832C97.0193 8.64 96.6953 8.384 96.4553 8.064C96.2153 7.736 96.0873 7.372 96.0713 6.972H97.4873C97.5113 7.252 97.6433 7.488 97.8833 7.68C98.1313 7.864 98.4393 7.956 98.8073 7.956C99.1913 7.956 99.4873 7.884 99.6953 7.74C99.9113 7.588 100.019 7.396 100.019 7.164C100.019 6.916 99.8993 6.732 99.6593 6.612C99.4273 6.492 99.0553 6.36 98.5433 6.216C98.0473 6.08 97.6433 5.948 97.3313 5.82C97.0193 5.692 96.7473 5.496 96.5153 5.232C96.2913 4.968 96.1793 4.62 96.1793 4.188C96.1793 3.836 96.2833 3.516 96.4913 3.228C96.6993 2.932 96.9953 2.7 97.3793 2.532C97.7713 2.364 98.2193 2.28 98.7233 2.28C99.4753 2.28 100.079 2.472 100.535 2.856C100.999 3.232 101.247 3.748 101.279 4.404H99.9113C99.8873 4.108 99.7673 3.872 99.5513 3.696C99.3353 3.52 99.0433 3.432 98.6753 3.432C98.3153 3.432 98.0393 3.5 97.8473 3.636C97.6553 3.772 97.5593 3.952 97.5593 4.176C97.5593 4.352 97.6233 4.5 97.7513 4.62C97.8793 4.74 98.0353 4.836 98.2193 4.908C98.4033 4.972 98.6753 5.056 99.0353 5.16C99.5153 5.288 99.9073 5.42 100.211 5.556C100.523 5.684 100.791 5.876 101.015 6.132C101.239 6.388 101.355 6.728 101.363 7.152C101.363 7.528 101.259 7.864 101.051 8.16C100.843 8.456 100.547 8.688 100.163 8.856C99.7873 9.024 99.3433 9.108 98.8313 9.108Z"
        fill="url(#paint0_linear_0_4)" />
    <defs>
        <linearGradient id="paint0_linear_0_4" x1="2.37487e-07" y1="4.99998" x2="102" y2="4.99998"
            gradientUnits="userSpaceOnUse">
            <stop stop-color="#59FFEB" />
            <stop offset="1" stop-color="#14C7FF" />
        </linearGradient>
    </defs>
</svg>