<svg width="24" height="24" viewBox="0 0 24 24" fill="none" xmlns="http://www.w3.org/2000/svg">
<path d="M11.4697 14.4697C11.1768 14.7626 11.1768 15.2374 11.4697 15.5303C11.7626 15.8232 12.2374 15.8232 12.5303 15.5303L11.4697 14.4697ZM15 12L15.5303 12.5303C15.671 12.3897 15.75 12.1989 15.75 12C15.75 11.8011 15.671 11.6103 15.5303 11.4697L15 12ZM12.5303 8.46967C12.2374 8.17678 11.7626 8.17678 11.4697 8.46967C11.1768 8.76256 11.1768 9.23744 11.4697 9.53033L12.5303 8.46967ZM4 11.25C3.58579 11.25 3.25 11.5858 3.25 12C3.25 12.4142 3.58579 12.75 4 12.75L4 11.25ZM12.5303 15.5303L15.5303 12.5303L14.4697 11.4697L11.4697 14.4697L12.5303 15.5303ZM15.5303 11.4697L12.5303 8.46967L11.4697 9.53033L14.4697 12.5303L15.5303 11.4697ZM4 12.75L15 12.75V11.25L4 11.25L4 12.75Z" fill="#17171A"/>
<path d="M9 7V5C9 4.44772 9.44772 4 10 4H19C19.5523 4 20 4.44772 20 5V19C20 19.5523 19.5523 20 19 20H10C9.44771 20 9 19.5523 9 19V17" stroke="#17171A" stroke-width="1.5" stroke-linecap="round" stroke-linejoin="round"/>
</svg>
