<svg width="24" height="24" viewBox="0 0 24 24" fill="none" xmlns="http://www.w3.org/2000/svg">
    <path fill-rule="evenodd" clip-rule="evenodd" d="M14.5163 2.02243C14.5036 2.03783 14.4221 2.16572 14.3355 2.3066C13.784 3.20286 13.0189 4.28416 12.2113 5.30849C12.0352 5.53191 12.0071 5.56388 11.9862 5.56442C11.9745 5.5647 11.5816 5.06552 11.2929 4.68366C10.6644 3.85222 10.1349 3.08786 9.69195 2.37245C9.51771 2.09104 9.48761 2.05044 9.45322 2.05044C9.36368 2.05044 7.7591 3.49654 6.76793 4.47048C6.62049 4.61537 6.62026 4.61446 6.82991 4.74814C7.93454 5.4526 10.4155 7.432 10.3385 7.54742C10.1844 7.77835 7.60754 10.4839 7.29888 10.7388L7.25639 10.7739L7.22429 10.7326C7.20662 10.7099 7.06533 10.5302 6.9103 10.3334C6.03584 9.22297 5.21935 8.05474 4.66839 7.12563C4.51323 6.86399 4.50727 6.85664 4.468 6.87871C4.34173 6.94966 2.08572 9.65725 2.03739 9.79582C2.02635 9.82751 2.04599 9.84649 2.19039 9.94366C2.88343 10.41 3.69887 11.0243 4.43915 11.6378C4.88469 12.0071 5.40038 12.4547 5.40016 12.4722C5.39838 12.6002 3.15857 14.3743 2.17514 15.0266C2.02069 15.1291 2.00043 15.1471 2 15.1822C1.99904 15.2641 4.3922 18.1325 4.46141 18.1325C4.48928 18.1325 4.5115 18.101 4.65335 17.8604C5.20087 16.9315 6.02565 15.753 6.98397 14.5303C7.11165 14.3674 7.22933 14.2244 7.24546 14.2125C7.27823 14.1885 7.35764 14.2635 8.15269 15.0687C8.83052 15.7552 10.2942 17.3264 10.3474 17.4247C10.3648 17.457 10.3333 17.4873 9.85793 17.8952C8.73771 18.8567 7.68886 19.6572 6.77282 20.2494C6.55843 20.3882 6.55547 20.3697 6.83686 20.6493C7.61309 21.4207 9.25053 22.9189 9.39399 22.989C9.43793 23.0105 9.41226 23.0446 9.67887 22.6097C10.1746 21.8011 10.8771 20.8046 11.6631 19.7953C11.8252 19.5871 11.9674 19.4128 11.9791 19.4081C12.0659 19.3731 13.4843 21.3064 14.1795 22.4073C14.3324 22.6494 14.4684 22.8637 14.4816 22.8835C14.5353 22.9641 14.7962 22.7507 16.0216 21.6232C17.3443 20.4063 17.3827 20.3618 17.2099 20.2491C16.7148 19.9263 15.9142 19.3476 15.3811 18.9273C14.5885 18.3022 13.6427 17.4946 13.6427 17.4428C13.6427 17.3594 15.3898 15.4952 16.4066 14.4936C16.5764 14.3262 16.7155 14.1838 16.7155 14.1772C16.7155 14.1527 15.9924 13.2817 15.537 12.7574L15.2963 12.4805L15.5217 12.2205C15.8334 11.861 16.1616 11.4717 16.4559 11.1121C16.7588 10.7422 16.6871 10.7467 17.0304 11.0754C17.4099 11.4389 17.8894 11.8832 18.2441 12.2005C18.5855 12.5055 18.5793 12.4612 18.3135 12.6971C17.8413 13.1165 16.7307 14.1557 16.7307 14.1783C16.7307 14.1833 16.7933 14.2663 16.8701 14.3628C17.8689 15.62 18.7251 16.8332 19.3094 17.819C19.4997 18.1399 19.485 18.1314 19.6099 17.9944C20.3783 17.1512 21.9607 15.2385 21.9611 15.1525C21.9611 15.1359 21.8694 15.0646 21.7136 14.9603C20.7892 14.341 18.5912 12.5941 18.5912 12.4786C18.5912 12.4146 19.9554 11.2837 20.7698 10.6726C21.0788 10.4407 21.8123 9.92335 21.9339 9.85163C22.0399 9.78897 22.0484 9.80773 21.7317 9.40442C21.1265 8.63349 20.1408 7.463 19.6258 6.90367C19.5145 6.78286 19.5328 6.76844 19.2928 7.16682C18.7195 8.11878 18.0058 9.1428 17.1565 10.2316C16.8372 10.6411 16.7302 10.7705 16.7156 10.7648C16.6151 10.726 13.6609 7.62531 13.6232 7.51919C13.6152 7.49675 14.4748 6.75933 15.0456 6.29902C15.8246 5.67067 16.4901 5.18368 17.2565 4.68086C17.3342 4.62987 17.3711 4.59569 17.3711 4.57499C17.3711 4.50072 15.7226 2.97545 14.7672 2.16576C14.5479 1.97993 14.5503 1.98133 14.5163 2.02243ZM12.1647 5.8008C12.5026 6.22159 13.2495 7.10758 13.4928 7.37625C13.6204 7.51705 13.633 7.49164 13.2729 7.81648C12.7835 8.25782 12.0178 8.97778 12.0066 9.00707C12.002 9.01899 12.0185 9.03583 12.4911 9.50409C13.4342 10.4386 15.282 12.4083 15.282 12.4791C15.282 12.5245 13.9664 13.9537 13.2236 14.7153C12.8326 15.1161 12.1265 15.8205 12.0228 15.9131L11.9893 15.943L11.6579 15.6169C10.7856 14.7583 9.81917 13.7436 9.00146 12.8279L8.69106 12.4803L8.87184 12.277C9.78105 11.2544 10.8608 10.12 11.7708 9.23117C11.8819 9.12263 11.9729 9.02496 11.9729 9.01411C11.9729 8.98304 11.4196 8.45568 10.7346 7.83384C10.5526 7.66862 10.3995 7.52626 10.3943 7.51748C10.3891 7.5087 10.4871 7.38452 10.6121 7.24153C10.9442 6.8614 11.3268 6.40779 11.6719 5.98493C12.0288 5.54774 11.9771 5.56708 12.1647 5.8008ZM7.5088 11.0852C7.83261 11.4799 8.15649 11.8645 8.43864 12.1895C8.72491 12.5192 8.7183 12.4459 8.48598 12.7143C8.16966 13.0797 7.8344 13.4773 7.54521 13.83C7.22142 14.225 7.30001 14.2139 6.98272 13.9096C6.59103 13.5338 6.18127 13.1534 5.80068 12.8122C5.38903 12.443 5.38646 12.5203 5.82355 12.1268C6.22033 11.7695 6.74548 11.2806 7.05494 10.9804C7.16398 10.8747 7.25844 10.7913 7.26486 10.7952C7.2713 10.799 7.38108 10.9295 7.5088 11.0852ZM12.2037 16.15C12.5111 16.444 12.9993 16.8974 13.311 17.1787C13.6375 17.4734 13.6238 17.4291 13.4503 17.6286C13.1426 17.9823 12.5871 18.6407 12.3162 18.9732C12.1583 19.1667 12.0203 19.3308 12.0096 19.3375C11.9818 19.355 11.9488 19.3194 11.6354 18.933C11.3332 18.5606 10.8532 17.9918 10.5649 17.6646C10.4657 17.552 10.3867 17.4532 10.3895 17.4452C10.3923 17.437 10.5318 17.3067 10.6995 17.1555C11.0498 16.8397 11.5315 16.3915 11.7975 16.1341C12.0181 15.9205 11.9613 15.9184 12.2037 16.15Z" fill="currentColor"/>
</svg>
